<?xml version="1.0" encoding="UTF-8" standalone="no"?>
<svg width="897px" height="740px" viewBox="0 0 897 740" version="1.1" xmlns="http://www.w3.org/2000/svg" xmlns:xlink="http://www.w3.org/1999/xlink">
    <!-- Generator: Sketch 41 (35326) - http://www.bohemiancoding.com/sketch -->
    <title>电动车-01</title>
    <desc>Created with Sketch.</desc>
    <defs></defs>
    <g id="Page-1" stroke="none" stroke-width="1" fill="none" fill-rule="evenodd">
        <g id="电动车-01">
            <g id="Group">
                <polygon id="Shape" fill="#04153D" points="543.31785 102.712131 818.587217 102.712131 818.587217 314.536514 543.31785 314.536514"></polygon>
                <path d="M204.506285,120.108337 C204.506285,73.036252 224.046317,37.730141 245.535747,37.730141 L245.535747,46.363775 C245.535747,46.363775 219.672706,50.523515 213.631106,120.108336 L204.506285,120.108337 Z" id="Shape" fill="#04153D"></path>
                <path d="M260.964134,0.978099 L259.063854,0.978099 C254.188823,0.978099 249.507197,1.802884 245.111074,3.280538 L245.111074,88.184253 C249.506174,89.68135 254.188823,90.487715 259.063854,90.487715 L260.964134,90.487715 C285.144859,90.487715 304.758569,70.892425 304.758569,46.692256 L304.758569,44.811419 C304.759593,20.592832 285.14486,0.978099 260.964134,0.978099 Z" id="Shape" fill="#04153D"></path>
                <path d="M720.641465,312.992345 L556.500081,312.992345 C420.52827,312.992345 414.253356,384.306554 395.215768,451.592006 C380.148608,504.810068 374.629917,529.136103 369.296445,553.084538 L489.119461,553.084538 C489.53697,552.071465 529.165526,499.364033 584.154931,492.17019 C656.668455,482.685165 697.017418,517.645398 698.585123,518.80992 C701.811607,508.837801 704.831384,498.723443 710.680602,477.116332 C732.234501,397.54916 720.641465,312.992345 720.641465,312.992345 Z" id="Shape" fill="#04153D"></path>
                <polygon id="Shape" fill="#04153D" points="720.349823 314.536514 896.358489 314.536514 896.358489 333.979332 720.349823 333.979332"></polygon>
                <path d="M211.073864,378.472686 C206.419867,332.122032 205.599176,281.980028 206.242835,239.015494 L141.637421,239.015494 C141.637421,239.015494 122.44736,234.500667 115.120487,229.724897 C60.530171,347.974068 88.230047,501.964255 88.230047,501.964255 C88.230047,501.964255 132.175932,478.781253 190.102226,494.819531 C240.817281,508.865432 272.888721,556.239392 272.888721,556.239392 C272.888721,556.239392 222.358885,491.086509 211.073864,378.472686 Z" id="Shape" fill="#04153D"></path>
                <path d="M518.732919,647.583796 C517.716776,639.738107 517.599096,633.971777 516.875618,633.971777 L464.098601,633.971777 C464.098601,633.971777 464.653233,608.483266 471.148157,589.750623 C478.070823,569.779779 484.979164,558.405731 490.055786,551.573115 L268.508971,552.033603 C295.747335,589.038402 294.939947,631.327554 294.939947,631.327554 L294.939947,635.102531 L258.482617,635.102531 C258.466244,641.907517 257.560618,653.980484 253.951417,669.381242 L525.139839,669.381242 C520.97089,669.379195 520.295508,659.658809 518.732919,647.583796 Z" id="Shape" fill="#04153D"></path>
                <path d="M196.991124,634.349377 C197.019777,634.977687 197.040243,635.60395 197.040243,636.237377 C197.040243,658.618107 178.365928,677.294468 155.986222,677.294468 C133.606516,677.294468 114.932201,658.618107 114.932201,636.237377 C114.932201,635.60395 114.952667,634.97871 114.98132,634.349377 L53.027293,634.349377 C53.015013,635.025782 52.976128,635.692978 52.976128,636.37143 C52.976128,693.141388 99.015697,739.18198 155.803051,739.18198 C212.55152,739.18198 258.610532,693.141388 258.610532,636.37143 C258.610532,635.694001 258.571646,635.026806 258.559367,634.349377 L196.991124,634.349377 Z" id="Shape" fill="#04153D"></path>
                <path d="M295.745289,634.778142 C294.882642,554.001421 229.172058,488.77179 148.183512,488.77179 C67.157104,488.77179 1.447543,554.00142 0.602292,634.778142 L295.745289,634.778142 Z" id="Shape" fill="#04153D"></path>
                <path d="M660.671629,634.349377 C660.701305,634.977687 660.720748,635.60395 660.720748,636.237377 C660.720748,658.618107 642.043363,677.294468 619.66468,677.294468 C597.28702,677.294468 578.609635,658.618107 578.609635,636.237377 C578.609635,635.60395 578.628055,634.97871 578.65773,634.349377 L516.658677,634.349377 C516.645374,635.025782 516.607512,635.692978 516.607512,636.37143 C516.607512,693.141388 562.667547,739.18198 619.454901,739.18198 C676.204393,739.18198 722.261358,693.141388 722.261358,636.37143 C722.261358,635.694001 722.224519,635.026806 722.211216,634.349377 L660.671629,634.349377 Z" id="Shape" fill="#04153D"></path>
                <path d="M757.285037,634.778142 C756.402947,554.001421 690.653477,488.77179 609.706887,488.77179 C528.696852,488.77179 463.006734,554.00142 462.104178,634.778142 L757.285037,634.778142 Z" id="Shape" fill="#04153D"></path>
                <path d="M239.056172,194.241754 C220.650987,194.241754 205.290137,178.882951 205.290137,160.475719 C205.290137,142.070534 220.650986,126.709684 239.056172,126.709684 C251.097416,126.709684 261.832921,133.28545 267.819263,142.984346 C269.482136,122.553014 277.308381,121.123456 253.814294,121.123456 L144.883349,121.123456 C118.976306,121.123456 51.561917,122.86103 51.561917,149.900873 L51.561917,167.86399 C51.561917,194.903833 118.976306,238.931582 144.883349,238.931582 L253.814294,238.931582 C276.750679,238.931582 269.838246,204.427744 267.949223,177.749128 C261.991534,187.568774 251.186444,194.241754 239.056172,194.241754 Z" id="Shape" fill="#04153D"></path>
                <path d="M239.228087,194.133284 C220.406416,194.133284 205.093662,178.828716 205.093662,160.017279 C205.093662,141.194585 220.406416,125.881831 239.228087,125.881831 C258.071247,125.881831 273.401397,141.194585 273.401397,160.017279 C273.401398,178.828716 258.071248,194.133284 239.228087,194.133284 Z M239.228087,126.905136 C220.970258,126.905136 206.116968,141.759449 206.116968,160.017278 C206.116968,178.264874 220.970257,193.109977 239.228087,193.109977 C257.507406,193.109977 272.378091,178.264874 272.378091,160.017278 C272.378092,141.758426 257.506383,126.905136 239.228087,126.905136 Z" id="Shape" fill="#000000"></path>
                <path d="M239.246507,175.837592 C218.832572,175.837592 218.832572,144.179568 239.246507,144.179568 C259.661466,144.179568 259.661466,175.837592 239.246507,175.837592 Z" id="Shape" fill="#04153D"></path>
            </g>
        </g>
    </g>
</svg>